<?xml version="1.0" standalone="no"?><!DOCTYPE svg PUBLIC "-//W3C//DTD SVG 1.1//EN" "http://www.w3.org/Graphics/SVG/1.1/DTD/svg11.dtd"><svg t="1734930255179" class="icon" viewBox="0 0 1024 1024" version="1.1" xmlns="http://www.w3.org/2000/svg" p-id="8900" xmlns:xlink="http://www.w3.org/1999/xlink" width="200" height="200"><path d="M907.82 66.76c-39.16 161.65-88.91 319.95-157.05 471.78-14.52 32.34-5.19 51.69 13.54 75.62 41.97 53.62 71.27 112.58 70.28 183.4C833.12 902.94 763.67 963 659.7 945.44c-27.71-4.68-54.42-15.23-81.59-23.08-4.2-22.89 16.53-23.97 28.67-31.68 70.29-44.63 80.08-81.52 39.51-153.35-5.89-10.44-12.87-20.29-11.32-33.16 3.59-7.24 9.84-12.13 15.46-17.69 9.54-9.44 24.88-20.35 5.92-32.66-12.79-8.31-21.27 3.85-26.74 15.04-4.33 8.85-7.34 18.42-14.82 25.49-7.95 4.44-16.41 5.38-25.26 4.02-46.64-17.37-93.17-27.15-139.11 1.99-15.41 9.8-31.12 19.15-44.73 31.49-45.74 41.51-45.05 94.24-0.75 137.53 17.54 17.14 50.81 20.2 50.62 53.93-19.56 5.23-39.25 10.05-58.67 15.76-141.06 41.5-226.94-61-192.45-200.88 10.76-43.66 28.41-86.13 59.52-118.64 30.85-32.25 25.75-59.21 9.7-97.01C211.04 375.02 161.2 222.92 124.43 66.76h24.48c174.25 56.85 284.79 231.65 279.02 408.08 53.58-44.54 122.81-44.54 176.37 0-5.7-176.52 104.79-351.22 279.04-408.09 8.16 0.01 16.32 0.01 24.48 0.01z" fill="#cdcdcd" p-id="8901"></path><path d="M638.22 703.39c81.87 101.41 67.5 153.76-60.11 218.96-40.84 0.31-81.69 0.63-122.54 0.94-33.45-27.41-79.74-41.72-96.18-86.58-22.16-60.47 3.62-104.05 82.86-146 7.12 4.31 11.23 11.26 16.14 17.66 45.74 59.61 69.79 59.6 115.48-0.05 4.9-6.4 9.01-13.35 16.13-17.66 8.83-0.6 17.67-1.2 26.5-1.79 11.69-1.8 18.57 3.57 21.72 14.52z" fill="#cdcdcd" p-id="8902"></path><path d="M836.7 185.19c-29.83 122.76-63.61 227.84-104.53 330.67-5.63 14.14-13.23 35.24-34.08 24.56-23.02-11.79-45.55-27.24-47.52-58.21-2.55-40.06 13.43-76.22 27.91-111.09 30.41-73.26 76.79-134.93 158.22-185.93zM198.17 195.02c60.68 18.47 86.45 65.8 117.56 106.13 37.82 49.04 55.07 107.21 65.52 167.3 6.5 37.35-17.72 58.07-47.48 68.15-37.14 12.58-36.14-25.42-42.92-43.7-35.52-95.72-68.76-192.38-92.68-297.88z" fill="#cdcdcd" p-id="8903"></path><path d="M590.01 690.65c-0.71 48.85-33.49 79.3-73.85 79.32-40.37 0.02-73.16-30.42-73.9-79.26 49.23-36.95 98.48-36.87 147.75-0.06z" fill="#cdcdcd" p-id="8904"></path><path d="M638.22 703.39c-7.24-4.84-14.48-9.69-21.71-14.53-1.44-21.23-10.54-45.25 15.94-57.95 20.3-9.73 42.72-7.6 51.04 14.32 15.21 40.05-11.54 53.11-45.27 58.16zM379.35 625.93c22.81 1.47 39.06 10.17 38.86 35.84-0.19 24.44-14.82 37.66-37.6 37.53-19.59-0.11-33.87-11.54-35.61-33.24-2-24.71 11.17-36.75 34.35-40.13z" fill="#cdcdcd" p-id="8905"></path><path d="M517.84 798.37c26.42 9.54 70.29-17.98 71.78 38.75 1.55 58.76-40.57 48.68-75.57 49.07-33.87 0.37-72.23 6.87-71.39-47.24 0.95-61.3 48.61-29.7 75.18-40.58z" fill="#cdcdcd" p-id="8906"></path></svg>